<svg xmlns="http://www.w3.org/2000/svg" width="600" height="240" viewBox="0 0 600 240">
  <rect width="600" height="240" rx="16" fill="#f7f0f1"/>

  <!-- background buildings -->
  <rect x="20" y="100" width="18" height="60" rx="2" fill="#d9b8bc"/>
  <rect x="42" y="80" width="14" height="80" rx="2" fill="#d9b8bc"/>
  <rect x="60" y="90" width="22" height="70" rx="2" fill="#d9b8bc"/>
  <rect x="86" y="70" width="16" height="90" rx="2" fill="#d9b8bc"/>
  <rect x="106" y="85" width="20" height="75" rx="2" fill="#d9b8bc"/>
  <rect x="130" y="65" width="12" height="95" rx="2" fill="#d9b8bc"/>
  <rect x="146" y="75" width="18" height="85" rx="2" fill="#d9b8bc"/>
  <rect x="168" y="95" width="24" height="65" rx="2" fill="#d9b8bc"/>
  <rect x="196" y="60" width="14" height="100" rx="2" fill="#d9b8bc"/>
  <rect x="214" y="80" width="20" height="80" rx="2" fill="#d9b8bc"/>
  <rect x="238" y="68" width="16" height="92" rx="2" fill="#d9b8bc"/>
  <rect x="258" y="50" width="12" height="110" rx="2" fill="#d9b8bc"/>
  <rect x="274" y="72" width="22" height="88" rx="2" fill="#d9b8bc"/>
  <rect x="300" y="62" width="18" height="98" rx="2" fill="#d9b8bc"/>
  <rect x="322" y="76" width="14" height="84" rx="2" fill="#d9b8bc"/>
  <rect x="340" y="88" width="20" height="72" rx="2" fill="#d9b8bc"/>
  <rect x="364" y="58" width="16" height="102" rx="2" fill="#d9b8bc"/>
  <rect x="384" y="70" width="22" height="90" rx="2" fill="#d9b8bc"/>
  <rect x="410" y="80" width="14" height="80" rx="2" fill="#d9b8bc"/>
  <rect x="428" y="65" width="18" height="95" rx="2" fill="#d9b8bc"/>
  <rect x="450" y="90" width="20" height="70" rx="2" fill="#d9b8bc"/>
  <rect x="474" y="68" width="16" height="92" rx="2" fill="#d9b8bc"/>
  <rect x="494" y="52" width="12" height="108" rx="2" fill="#d9b8bc"/>
  <rect x="510" y="75" width="24" height="85" rx="2" fill="#d9b8bc"/>
  <rect x="538" y="85" width="18" height="75" rx="2" fill="#d9b8bc"/>
  <rect x="560" y="68" width="14" height="92" rx="2" fill="#d9b8bc"/>

  <!-- foreground buildings -->
  <rect x="20" y="128" width="30" height="32" rx="2" fill="#c49098"/>
  <rect x="54" y="118" width="22" height="42" rx="2" fill="#c49098"/>
  <rect x="80" y="122" width="36" height="38" rx="2" fill="#c49098"/>
  <rect x="120" y="110" width="28" height="50" rx="2" fill="#c49098"/>
  <rect x="152" y="125" width="24" height="35" rx="2" fill="#c49098"/>
  <rect x="180" y="115" width="32" height="45" rx="2" fill="#c49098"/>
  <rect x="216" y="105" width="20" height="55" rx="2" fill="#c49098"/>
  <rect x="240" y="120" width="28" height="40" rx="2" fill="#c49098"/>
  <rect x="272" y="108" width="34" height="52" rx="2" fill="#c49098"/>
  <rect x="310" y="118" width="24" height="42" rx="2" fill="#c49098"/>
  <rect x="338" y="125" width="30" height="35" rx="2" fill="#c49098"/>
  <rect x="372" y="110" width="26" height="50" rx="2" fill="#c49098"/>
  <rect x="402" y="122" width="22" height="38" rx="2" fill="#c49098"/>
  <rect x="428" y="115" width="32" height="45" rx="2" fill="#c49098"/>
  <rect x="464" y="108" width="28" height="52" rx="2" fill="#c49098"/>
  <rect x="496" y="120" width="20" height="40" rx="2" fill="#c49098"/>
  <rect x="520" y="112" width="30" height="48" rx="2" fill="#c49098"/>
  <rect x="554" y="122" width="22" height="38" rx="2" fill="#c49098"/>

  <!-- ground -->
  <rect x="0" y="160" width="600" height="80" rx="0" fill="#b04050" opacity="0.10"/>

  <!-- rail line -->
  <line x1="0" y1="160" x2="600" y2="160" stroke="#b04050" stroke-width="3"/>
  <line x1="40" y1="156" x2="40" y2="164" stroke="#b04050" stroke-width="2" opacity="0.4"/>
  <line x1="90" y1="156" x2="90" y2="164" stroke="#b04050" stroke-width="2" opacity="0.4"/>
  <line x1="140" y1="156" x2="140" y2="164" stroke="#b04050" stroke-width="2" opacity="0.4"/>
  <line x1="190" y1="156" x2="190" y2="164" stroke="#b04050" stroke-width="2" opacity="0.4"/>
  <line x1="240" y1="156" x2="240" y2="164" stroke="#b04050" stroke-width="2" opacity="0.4"/>
  <line x1="290" y1="156" x2="290" y2="164" stroke="#b04050" stroke-width="2" opacity="0.4"/>
  <line x1="340" y1="156" x2="340" y2="164" stroke="#b04050" stroke-width="2" opacity="0.4"/>
  <line x1="390" y1="156" x2="390" y2="164" stroke="#b04050" stroke-width="2" opacity="0.4"/>
  <line x1="440" y1="156" x2="440" y2="164" stroke="#b04050" stroke-width="2" opacity="0.4"/>
  <line x1="490" y1="156" x2="490" y2="164" stroke="#b04050" stroke-width="2" opacity="0.4"/>
  <line x1="540" y1="156" x2="540" y2="164" stroke="#b04050" stroke-width="2" opacity="0.4"/>
  <line x1="590" y1="156" x2="590" y2="164" stroke="#b04050" stroke-width="2" opacity="0.4"/>

  <!-- station dots -->
  <circle cx="90" cy="160" r="5" fill="#fff" stroke="#b04050" stroke-width="2"/>
  <circle cx="210" cy="160" r="5" fill="#fff" stroke="#b04050" stroke-width="2"/>
  <circle cx="330" cy="160" r="5" fill="#fff" stroke="#b04050" stroke-width="2"/>
  <circle cx="450" cy="160" r="5" fill="#fff" stroke="#b04050" stroke-width="2"/>
  <circle cx="555" cy="160" r="5" fill="#fff" stroke="#b04050" stroke-width="2"/>

  <!-- train -->
  <rect x="250" y="135" width="90" height="25" rx="5" fill="#b04050"/>
  <rect x="252" y="137" width="86" height="10" rx="3" fill="#c05060"/>
  <rect x="257" y="140" width="14" height="6" rx="1" fill="#f8d0d4" opacity="0.8"/>
  <rect x="276" y="140" width="14" height="6" rx="1" fill="#f8d0d4" opacity="0.8"/>
  <rect x="295" y="140" width="14" height="6" rx="1" fill="#f8d0d4" opacity="0.8"/>
  <rect x="314" y="140" width="14" height="6" rx="1" fill="#f8d0d4" opacity="0.8"/>
  <circle cx="268" cy="160" r="4" fill="#7a2030"/>
  <circle cx="322" cy="160" r="4" fill="#7a2030"/>

  <!-- text -->
  <text x="300" y="200" text-anchor="middle" font-family="Arial, sans-serif" font-size="32" font-weight="800" fill="#b04050" letter-spacing="-1">דרך קלה</text>
  <text x="300" y="224" text-anchor="middle" font-family="Arial, sans-serif" font-size="12" font-weight="400" fill="#b04050" opacity="0.6" letter-spacing="2">הרכבת הקלה של גוש דן</text>
</svg>